<?xml version="1.0" encoding="utf-8"?>
<!-- Generator: Adobe Illustrator 25.2.0, SVG Export Plug-In . SVG Version: 6.00 Build 0)  -->
<svg version="1.1" id="Layer_1" xmlns="http://www.w3.org/2000/svg" xmlns:xlink="http://www.w3.org/1999/xlink" x="0px" y="0px"
	 viewBox="0 0 512 512" style="enable-background:new 0 0 512 512;" xml:space="preserve">
<style type="text/css">
	.st0{fill:#2971A1;}
</style>
<g>
	<g>
		<path class="st0" d="M437,75C337-25,174.9-25,75,75S-25,337.1,75,437S337.1,537,437,437c48-48,75-113.1,75-181
			C512,188.1,485,123,437,75z M387.7,356.6C387.7,356.6,387.7,356.6,387.7,356.6L387.7,356.6l-13,12.8c-16.8,17-41.2,24-64.4,18.4
			c-23.4-6.3-45.6-16.2-65.9-29.5c-18.8-12-36.2-26.1-52-41.9c-14.5-14.4-27.5-30.2-38.8-47.1c-12.4-18.2-22.2-38.1-29.2-59.1
			c-8-24.6-1.4-51.6,17.1-69.7l15.2-15.2c4.2-4.2,11.1-4.3,15.3,0c0,0,0,0,0,0l48,48c4.2,4.2,4.3,11.1,0,15.3c0,0,0,0,0,0
			l-28.2,28.2c-8.1,8-9.1,20.7-2.4,29.9c10.2,14,21.5,27.1,33.7,39.3c13.7,13.7,28.5,26.2,44.4,37.3c9.2,6.4,21.6,5.3,29.5-2.6
			l27.2-27.6c4.2-4.2,11.1-4.3,15.3,0c0,0,0,0,0,0l48,48.1C391.9,345.5,391.9,352.4,387.7,356.6z"/>
	</g>
</g>
</svg>
